<?xml version="1.0" encoding="UTF-8"?>
<!DOCTYPE svg PUBLIC "-//W3C//DTD SVG 1.1//EN" "http://www.w3.org/Graphics/SVG/1.1/DTD/svg11.dtd">
<svg xmlns="http://www.w3.org/2000/svg" version="1.1" width="316px" height="260px" style="shape-rendering:geometricPrecision; text-rendering:geometricPrecision; image-rendering:optimizeQuality; fill-rule:evenodd; clip-rule:evenodd" xmlns:xlink="http://www.w3.org/1999/xlink">
<g><path style="opacity:1" fill="#44362d" d="M 149.5,-0.5 C 153.833,-0.5 158.167,-0.5 162.5,-0.5C 162.5,0.166667 162.833,0.5 163.5,0.5C 168.519,2.16623 173.519,4.16623 178.5,6.5C 179.506,7.39567 179.506,8.06233 178.5,8.5C 165.962,3.41062 153.462,3.41062 141,8.5C 138.3,10.684 135.3,12.3507 132,13.5C 130.97,13.1639 130.47,12.4972 130.5,11.5C 130.733,9.93819 131.4,8.60486 132.5,7.5C 134.253,5.77747 136.253,4.27747 138.5,3C 142.254,1.69123 145.921,0.524565 149.5,-0.5 Z"/></g>
<g><path style="opacity:1" fill="#4e3d34" d="M 186.5,30.5 C 180.863,24.1797 173.863,20.1797 165.5,18.5C 165.158,17.6618 164.492,17.3284 163.5,17.5C 156.301,16.936 148.968,16.6027 141.5,16.5C 140.619,15.0295 139.286,14.1962 137.5,14C 139.83,11.8328 142.497,10.1662 145.5,9C 160.288,5.04127 173.455,7.8746 185,17.5C 186.154,21.804 186.654,26.1374 186.5,30.5 Z"/></g>
<g><path style="opacity:0.993" fill="#211002" d="M 201.5,26.5 C 210.601,41.1013 217.601,56.7679 222.5,73.5C 221.686,75.631 221.186,77.9644 221,80.5C 216.761,77.5862 214.094,73.5862 213,68.5C 212.15,73.506 212.65,78.3393 214.5,83C 212.966,85.966 211.8,89.1327 211,92.5C 206.013,84.588 202.846,75.9213 201.5,66.5C 202.851,69.0225 204.017,71.6892 205,74.5C 205.194,72.8263 206.027,71.3263 207.5,70C 204.693,58.0276 201.693,46.361 198.5,35C 198.982,33.9916 199.148,32.825 199,31.5C 200.049,32.5171 201.216,32.6838 202.5,32C 202.795,30.2863 202.462,28.453 201.5,26.5 Z"/></g>
<g><path style="opacity:1" fill="#926846" d="M 198.5,66.5 C 197.222,66.2178 196.222,65.5511 195.5,64.5C 193.871,56.9256 190.538,50.259 185.5,44.5C 183.129,39.7976 179.462,36.4643 174.5,34.5C 172.283,33.6314 169.95,33.298 167.5,33.5C 172.532,31.8949 177.699,31.5615 183,32.5C 191.145,42.4586 196.312,53.7919 198.5,66.5 Z"/></g>
<g><path style="opacity:1" fill="#fce0ca" d="M 151.5,33.5 C 156.833,33.5 162.167,33.5 167.5,33.5C 169.95,33.298 172.283,33.6314 174.5,34.5C 175.782,36.4645 177.115,38.4645 178.5,40.5C 176.914,42.1727 176.247,44.1727 176.5,46.5C 171.644,47.9244 166.978,49.9244 162.5,52.5C 157.949,52.6401 153.282,52.1401 148.5,51C 142.092,47.6772 139.925,42.5105 142,35.5C 144.804,33.6556 147.97,32.9889 151.5,33.5 Z"/></g>
<g><path style="opacity:1" fill="#28180b" d="M 163.5,0.5 C 180.812,2.49374 193.479,11.1604 201.5,26.5C 202.462,28.453 202.795,30.2863 202.5,32C 201.216,32.6838 200.049,32.5171 199,31.5C 199.148,32.825 198.982,33.9916 198.5,35C 201.693,46.361 204.693,58.0276 207.5,70C 206.027,71.3263 205.194,72.8263 205,74.5C 204.017,71.6892 202.851,69.0225 201.5,66.5C 199.659,59.5206 197.492,52.5206 195,45.5C 191.911,40.5941 189.077,35.5941 186.5,30.5C 186.654,26.1374 186.154,21.804 185,17.5C 173.455,7.8746 160.288,5.04127 145.5,9C 142.497,10.1662 139.83,11.8328 137.5,14C 139.286,14.1962 140.619,15.0295 141.5,16.5C 148.968,16.6027 156.301,16.936 163.5,17.5C 157.445,17.3379 151.445,17.8379 145.5,19C 139.864,26.8194 135.531,26.3194 132.5,17.5C 127.126,16.7793 126.459,14.7793 130.5,11.5C 130.47,12.4972 130.97,13.1639 132,13.5C 135.3,12.3507 138.3,10.684 141,8.5C 153.462,3.41062 165.962,3.41062 178.5,8.5C 179.506,8.06233 179.506,7.39567 178.5,6.5C 173.519,4.16623 168.519,2.16623 163.5,0.5 Z"/></g>
<g><path style="opacity:1" fill="#e9c9b1" d="M 150.5,32.5 C 151.167,32.5 151.5,32.8333 151.5,33.5C 147.97,32.9889 144.804,33.6556 142,35.5C 139.925,42.5105 142.092,47.6772 148.5,51C 153.282,52.1401 157.949,52.6401 162.5,52.5C 166.978,49.9244 171.644,47.9244 176.5,46.5C 176.247,44.1727 176.914,42.1727 178.5,40.5C 177.115,38.4645 175.782,36.4645 174.5,34.5C 179.462,36.4643 183.129,39.7976 185.5,44.5C 188.037,50.7779 186.037,54.1112 179.5,54.5C 176.193,55.0508 172.86,55.3841 169.5,55.5C 169.5,56.8333 169.5,58.1667 169.5,59.5C 174.446,59.611 179.279,58.9443 184,57.5C 186.41,57.4824 188.577,58.1491 190.5,59.5C 191.597,63.7766 191.597,68.1099 190.5,72.5C 183.976,74.371 177.31,75.5376 170.5,76C 171.416,76.2784 172.082,76.7784 172.5,77.5C 171.5,77.5 170.5,77.5 169.5,77.5C 169.308,82.1273 169.974,86.6273 171.5,91C 170.572,95.3065 172.239,98.4731 176.5,100.5C 179.495,95.8444 181.995,90.8444 184,85.5C 183.681,83.2571 183.848,81.0905 184.5,79C 180.975,78.8213 177.641,78.3213 174.5,77.5C 176.833,77.5 179.167,77.5 181.5,77.5C 183.833,77.5 186.167,77.5 188.5,77.5C 185.445,84.3879 183.611,91.7213 183,99.5C 168.262,115.805 152.762,116.472 136.5,101.5C 134.35,94.063 132.016,86.7296 129.5,79.5C 130.183,77.8235 131.517,77.1568 133.5,77.5C 137.5,77.5 141.5,77.5 145.5,77.5C 142.023,78.3227 138.356,78.8227 134.5,79C 133.088,84.2964 133.588,89.463 136,94.5C 138.674,98.0981 141.507,101.598 144.5,105C 145.448,105.483 146.448,105.649 147.5,105.5C 147.5,104.5 147.5,103.5 147.5,102.5C 147.833,102.5 148.167,102.5 148.5,102.5C 148.574,104.411 149.574,105.578 151.5,106C 155.428,107.325 159.428,107.658 163.5,107C 165.544,106.502 166.878,105.335 167.5,103.5C 169.103,103.688 170.437,103.188 171.5,102C 164.508,101.5 157.508,101.334 150.5,101.5C 156.897,100.137 163.397,98.8037 170,97.5C 170.054,95.4528 169.054,95.4528 167,97.5C 166.667,96.8333 166.333,96.1667 166,95.5C 164.094,96.1311 162.094,96.4644 160,96.5C 157.705,96.4535 155.871,95.7868 154.5,94.5C 153.178,94.67 152.011,94.3366 151,93.5C 150.814,89.4841 150.814,85.4841 151,81.5C 150.888,78.5529 149.388,77.2196 146.5,77.5C 146.918,76.7784 147.584,76.2784 148.5,76C 141.69,75.5376 135.024,74.371 128.5,72.5C 127.759,68.3526 127.759,64.0193 128.5,59.5C 130.307,58.3852 132.307,57.7186 134.5,57.5C 139.342,59.1517 144.342,59.8184 149.5,59.5C 149.5,58.1667 149.5,56.8333 149.5,55.5C 146.098,55.6576 142.764,55.3242 139.5,54.5C 136.435,53.1816 133.269,53.1816 130,54.5C 130.343,49.3508 129.843,44.1841 128.5,39C 129.205,36.4582 130.539,34.2916 132.5,32.5C 138.468,31.4269 144.468,31.4269 150.5,32.5 Z"/></g>
<g><path style="opacity:0.989" fill="#1c0a01" d="M 118.5,58.5 C 118.5,65.1667 118.5,71.8333 118.5,78.5C 116.906,75.9391 115.906,72.9391 115.5,69.5C 114.914,69.7093 114.414,70.0426 114,70.5C 113.581,74.3917 112.748,78.0584 111.5,81.5C 111.649,80.448 111.483,79.448 111,78.5C 108.855,86.0465 108.189,93.7132 109,101.5C 109.333,101.167 109.667,100.833 110,100.5C 110.029,103.367 110.862,105.867 112.5,108C 112.167,108.333 111.833,108.667 111.5,109C 112.788,113.503 114.121,118.003 115.5,122.5C 114.905,124.44 114.572,126.44 114.5,128.5C 114.556,130.64 115.223,132.306 116.5,133.5C 113.98,135.263 111.647,137.263 109.5,139.5C 107.938,139.733 106.605,140.4 105.5,141.5C 100.159,132.637 97.326,122.971 97,112.5C 96.344,97.7481 97.1774,83.0814 99.5,68.5C 100.558,69.6002 101.392,70.9336 102,72.5C 103.827,71.8948 105.16,70.2281 106,67.5C 105.943,70.9723 106.943,73.9723 109,76.5C 110,75.1667 111,73.8333 112,72.5C 112.32,66.2082 114.32,60.5416 118,55.5C 118.483,56.448 118.649,57.448 118.5,58.5 Z"/></g>
<g><path style="opacity:1" fill="#211003" d="M 132.5,7.5 C 131.4,8.60486 130.733,9.93819 130.5,11.5C 126.459,14.7793 127.126,16.7793 132.5,17.5C 135.531,26.3194 139.864,26.8194 145.5,19C 151.445,17.8379 157.445,17.3379 163.5,17.5C 164.492,17.3284 165.158,17.6618 165.5,18.5C 158.493,18.8303 151.826,20.3303 145.5,23C 148.957,24.7435 152.623,25.7435 156.5,26C 155.833,26.3333 155.167,26.6667 154.5,27C 157.032,27.6189 159.365,28.6189 161.5,30C 158.838,32.1017 156.671,31.6017 155,28.5C 153.306,29.6988 151.806,31.0322 150.5,32.5C 144.468,31.4269 138.468,31.4269 132.5,32.5C 130.629,32.8588 129.129,33.8588 128,35.5C 126.82,37.8599 125.653,40.1932 124.5,42.5C 121.504,47.4914 119.504,52.8248 118.5,58.5C 118.649,57.448 118.483,56.448 118,55.5C 114.32,60.5416 112.32,66.2082 112,72.5C 111,73.8333 110,75.1667 109,76.5C 106.943,73.9723 105.943,70.9723 106,67.5C 105.16,70.2281 103.827,71.8948 102,72.5C 101.392,70.9336 100.558,69.6002 99.5,68.5C 101.119,55.5744 103.952,42.9077 108,30.5C 110.623,24.3638 115.123,20.6971 121.5,19.5C 115.363,21.6441 111.697,25.9775 110.5,32.5C 110.833,33.5 111.167,34.5 111.5,35.5C 112.667,33.8333 113.833,32.1667 115,30.5C 114.561,33.4297 114.061,36.4297 113.5,39.5C 114.371,43.3069 115.704,46.9736 117.5,50.5C 119.02,46.065 120.687,41.7316 122.5,37.5C 124.46,33.7242 127.127,30.5575 130.5,28C 129.239,26.0382 127.572,24.5382 125.5,23.5C 124.791,22.596 123.791,22.2627 122.5,22.5C 122.5,21.5 122.5,20.5 122.5,19.5C 123.82,16.1943 125.653,13.1943 128,10.5C 129.129,8.85883 130.629,7.85883 132.5,7.5 Z"/></g>
<g><path style="opacity:1" fill="#332318" d="M 121.5,19.5 C 121.833,19.5 122.167,19.5 122.5,19.5C 122.5,20.5 122.5,21.5 122.5,22.5C 123.791,22.2627 124.791,22.596 125.5,23.5C 122.348,22.9586 119.848,23.9586 118,26.5C 117.255,30.8508 118.088,34.8508 120.5,38.5C 121.183,38.1373 121.85,37.8039 122.5,37.5C 120.687,41.7316 119.02,46.065 117.5,50.5C 115.704,46.9736 114.371,43.3069 113.5,39.5C 114.061,36.4297 114.561,33.4297 115,30.5C 113.833,32.1667 112.667,33.8333 111.5,35.5C 111.167,34.5 110.833,33.5 110.5,32.5C 111.697,25.9775 115.363,21.6441 121.5,19.5 Z"/></g>
<g><path style="opacity:1" fill="#44352b" d="M 125.5,23.5 C 127.572,24.5382 129.239,26.0382 130.5,28C 127.127,30.5575 124.46,33.7242 122.5,37.5C 121.85,37.8039 121.183,38.1373 120.5,38.5C 118.088,34.8508 117.255,30.8508 118,26.5C 119.848,23.9586 122.348,22.9586 125.5,23.5 Z"/></g>
<g><path style="opacity:0.987" fill="#1c0a02" d="M 165.5,18.5 C 173.863,20.1797 180.863,24.1797 186.5,30.5C 189.077,35.5941 191.911,40.5941 195,45.5C 197.492,52.5206 199.659,59.5206 201.5,66.5C 202.846,75.9213 206.013,84.588 211,92.5C 211.8,89.1327 212.966,85.966 214.5,83C 212.65,78.3393 212.15,73.506 213,68.5C 214.094,73.5862 216.761,77.5862 221,80.5C 221.186,77.9644 221.686,75.631 222.5,73.5C 225.273,97.3194 222.94,120.653 215.5,143.5C 214.167,142.5 212.833,141.5 211.5,140.5C 208.01,137.589 204.344,134.922 200.5,132.5C 201.708,131.766 203.041,131.433 204.5,131.5C 204.065,125.757 205.232,120.424 208,115.5C 208.979,109.017 208.479,102.684 206.5,96.5C 204.604,95.7255 202.937,94.7255 201.5,93.5C 202.401,84.2361 201.401,75.2361 198.5,66.5C 196.312,53.7919 191.145,42.4586 183,32.5C 177.699,31.5615 172.532,31.8949 167.5,33.5C 162.167,33.5 156.833,33.5 151.5,33.5C 151.5,32.8333 151.167,32.5 150.5,32.5C 151.806,31.0322 153.306,29.6988 155,28.5C 156.671,31.6017 158.838,32.1017 161.5,30C 159.365,28.6189 157.032,27.6189 154.5,27C 155.167,26.6667 155.833,26.3333 156.5,26C 152.623,25.7435 148.957,24.7435 145.5,23C 151.826,20.3303 158.493,18.8303 165.5,18.5 Z"/></g>
<g><path style="opacity:1" fill="#72594e" d="M 118.5,78.5 C 117.791,79.404 116.791,79.7373 115.5,79.5C 115.33,80.8221 115.663,81.9887 116.5,83C 115.956,83.7172 115.289,84.2172 114.5,84.5C 114.19,83.2617 113.69,83.2617 113,84.5C 112.517,85.448 112.351,86.448 112.5,87.5C 111.539,85.7354 111.205,83.7354 111.5,81.5C 112.748,78.0584 113.581,74.3917 114,70.5C 114.414,70.0426 114.914,69.7093 115.5,69.5C 115.906,72.9391 116.906,75.9391 118.5,78.5 Z"/></g>
<g><path style="opacity:1" fill="#e0d8d2" d="M 114.5,84.5 C 116.353,86.6914 116.687,89.0248 115.5,91.5C 113.554,90.9653 112.554,89.632 112.5,87.5C 112.351,86.448 112.517,85.448 113,84.5C 113.69,83.2617 114.19,83.2617 114.5,84.5 Z"/></g>
<g><path style="opacity:1" fill="#a97f62" d="M 124.5,42.5 C 122.441,57.0414 121.941,71.708 123,86.5C 123.917,91.6696 125.417,96.6696 127.5,101.5C 131.167,104.5 134.5,107.833 137.5,111.5C 141.681,113.755 145.681,116.255 149.5,119C 158.593,120.322 167.259,119.155 175.5,115.5C 174.274,117.876 172.274,119.376 169.5,120C 162.508,120.5 155.508,120.666 148.5,120.5C 144.457,117.289 140.124,114.456 135.5,112C 133.806,108.922 131.139,107.422 127.5,107.5C 122.847,103.547 119.68,98.547 118,92.5C 117.329,91.7476 116.496,91.4142 115.5,91.5C 116.687,89.0248 116.353,86.6914 114.5,84.5C 115.289,84.2172 115.956,83.7172 116.5,83C 115.663,81.9887 115.33,80.8221 115.5,79.5C 116.791,79.7373 117.791,79.404 118.5,78.5C 118.5,71.8333 118.5,65.1667 118.5,58.5C 119.504,52.8248 121.504,47.4914 124.5,42.5 Z"/></g>
<g><path style="opacity:1" fill="#180602" d="M 111.5,81.5 C 111.205,83.7354 111.539,85.7354 112.5,87.5C 112.554,89.632 113.554,90.9653 115.5,91.5C 116.496,91.4142 117.329,91.7476 118,92.5C 119.68,98.547 122.847,103.547 127.5,107.5C 131.287,111.985 135.787,115.652 141,118.5C 141.711,120.899 141.544,123.232 140.5,125.5C 146.185,128.895 152.351,130.229 159,129.5C 165.265,129.576 171.432,128.909 177.5,127.5C 177.5,124.5 177.5,121.5 177.5,118.5C 188.275,112.727 196.275,104.394 201.5,93.5C 202.937,94.7255 204.604,95.7255 206.5,96.5C 208.479,102.684 208.979,109.017 208,115.5C 205.232,120.424 204.065,125.757 204.5,131.5C 203.041,131.433 201.708,131.766 200.5,132.5C 195.415,130.229 190.082,128.896 184.5,128.5C 179.587,129.25 174.92,130.75 170.5,133C 162.833,133.667 155.167,133.667 147.5,133C 143.135,130.655 138.468,129.155 133.5,128.5C 127.571,129.299 121.905,130.966 116.5,133.5C 115.223,132.306 114.556,130.64 114.5,128.5C 114.572,126.44 114.905,124.44 115.5,122.5C 114.121,118.003 112.788,113.503 111.5,109C 111.833,108.667 112.167,108.333 112.5,108C 110.862,105.867 110.029,103.367 110,100.5C 109.667,100.833 109.333,101.167 109,101.5C 108.189,93.7132 108.855,86.0465 111,78.5C 111.483,79.448 111.649,80.448 111.5,81.5 Z"/></g>
<g><path style="opacity:1" fill="#cba68c" d="M 132.5,32.5 C 130.539,34.2916 129.205,36.4582 128.5,39C 129.843,44.1841 130.343,49.3508 130,54.5C 133.269,53.1816 136.435,53.1816 139.5,54.5C 136.813,54.3359 134.146,54.5026 131.5,55C 129.859,56.129 128.859,57.629 128.5,59.5C 127.759,64.0193 127.759,68.3526 128.5,72.5C 128.351,73.552 128.517,74.552 129,75.5C 130.622,76.0989 132.122,76.7656 133.5,77.5C 131.517,77.1568 130.183,77.8235 129.5,79.5C 129.049,87.9209 130.549,95.9209 134,103.5C 139.256,107.211 144.422,111.045 149.5,115C 157.146,116.837 164.812,116.837 172.5,115C 175.135,113.039 176.969,110.539 178,107.5C 179.973,106.36 181.807,105.027 183.5,103.5C 187.659,95.8781 189.993,87.7114 190.5,79C 190.164,77.9701 189.497,77.4701 188.5,77.5C 186.167,77.5 183.833,77.5 181.5,77.5C 184.023,76.7463 186.689,76.0796 189.5,75.5C 190.386,74.675 190.719,73.675 190.5,72.5C 191.597,68.1099 191.597,63.7766 190.5,59.5C 190.141,57.629 189.141,56.129 187.5,55C 184.854,54.5026 182.187,54.3359 179.5,54.5C 186.037,54.1112 188.037,50.7779 185.5,44.5C 190.538,50.259 193.871,56.9256 195.5,64.5C 195.87,74.8894 195.37,85.2227 194,95.5C 191.667,98.8333 189.333,102.167 187,105.5C 182.337,108.004 178.503,111.338 175.5,115.5C 167.259,119.155 158.593,120.322 149.5,119C 145.681,116.255 141.681,113.755 137.5,111.5C 134.5,107.833 131.167,104.5 127.5,101.5C 125.417,96.6696 123.917,91.6696 123,86.5C 121.941,71.708 122.441,57.0414 124.5,42.5C 125.653,40.1932 126.82,37.8599 128,35.5C 129.129,33.8588 130.629,32.8588 132.5,32.5 Z"/></g>
<g><path style="opacity:1" fill="#f9dbc5" d="M 172.5,77.5 C 173.167,77.5 173.833,77.5 174.5,77.5C 177.641,78.3213 180.975,78.8213 184.5,79C 183.848,81.0905 183.681,83.2571 184,85.5C 181.995,90.8444 179.495,95.8444 176.5,100.5C 172.239,98.4731 170.572,95.3065 171.5,91C 169.974,86.6273 169.308,82.1273 169.5,77.5C 170.5,77.5 171.5,77.5 172.5,77.5 Z"/></g>
<g><path style="opacity:1" fill="#f7d8c2" d="M 145.5,77.5 C 145.833,77.5 146.167,77.5 146.5,77.5C 149.388,77.2196 150.888,78.5529 151,81.5C 150.814,85.4841 150.814,89.4841 151,93.5C 152.011,94.3366 153.178,94.67 154.5,94.5C 155.871,95.7868 157.705,96.4535 160,96.5C 162.094,96.4644 164.094,96.1311 166,95.5C 166.333,96.1667 166.667,96.8333 167,97.5C 169.054,95.4528 170.054,95.4528 170,97.5C 163.397,98.8037 156.897,100.137 150.5,101.5C 149.209,101.263 148.209,101.596 147.5,102.5C 147.5,103.5 147.5,104.5 147.5,105.5C 146.448,105.649 145.448,105.483 144.5,105C 141.507,101.598 138.674,98.0981 136,94.5C 133.588,89.463 133.088,84.2964 134.5,79C 138.356,78.8227 142.023,78.3227 145.5,77.5 Z"/></g>
<g><path style="opacity:1" fill="#4e3727" d="M 190.5,72.5 C 190.719,73.675 190.386,74.675 189.5,75.5C 186.689,76.0796 184.023,76.7463 181.5,77.5C 179.167,77.5 176.833,77.5 174.5,77.5C 173.833,77.5 173.167,77.5 172.5,77.5C 172.082,76.7784 171.416,76.2784 170.5,76C 177.31,75.5376 183.976,74.371 190.5,72.5 Z"/></g>
<g><path style="opacity:1" fill="#4f3e2f" d="M 128.5,72.5 C 135.024,74.371 141.69,75.5376 148.5,76C 147.584,76.2784 146.918,76.7784 146.5,77.5C 146.167,77.5 145.833,77.5 145.5,77.5C 141.5,77.5 137.5,77.5 133.5,77.5C 132.122,76.7656 130.622,76.0989 129,75.5C 128.517,74.552 128.351,73.552 128.5,72.5 Z"/></g>
<g><path style="opacity:1" fill="#efd0b8" d="M 178.5,59.5 C 185.509,59.1291 188.009,62.4624 186,69.5C 182.743,72.4285 178.909,73.2618 174.5,72C 172.628,69.631 170.628,67.4644 168.5,65.5C 168.68,64.4461 169.013,63.4461 169.5,62.5C 172.576,61.3659 175.576,60.3659 178.5,59.5 Z"/></g>
<g><path style="opacity:1" fill="#866c5b" d="M 179.5,54.5 C 182.187,54.3359 184.854,54.5026 187.5,55C 189.141,56.129 190.141,57.629 190.5,59.5C 188.577,58.1491 186.41,57.4824 184,57.5C 179.279,58.9443 174.446,59.611 169.5,59.5C 169.5,58.1667 169.5,56.8333 169.5,55.5C 172.86,55.3841 176.193,55.0508 179.5,54.5 Z"/></g>
<g><path style="opacity:1" fill="#846e5c" d="M 139.5,54.5 C 142.764,55.3242 146.098,55.6576 149.5,55.5C 149.5,56.8333 149.5,58.1667 149.5,59.5C 144.342,59.8184 139.342,59.1517 134.5,57.5C 132.307,57.7186 130.307,58.3852 128.5,59.5C 128.859,57.629 129.859,56.129 131.5,55C 134.146,54.5026 136.813,54.3359 139.5,54.5 Z"/></g>
<g><path style="opacity:1" fill="#b38a6d" d="M 195.5,64.5 C 196.222,65.5511 197.222,66.2178 198.5,66.5C 199.423,78.5081 197.923,90.1747 194,101.5C 189.088,107.924 182.921,112.59 175.5,115.5C 178.503,111.338 182.337,108.004 187,105.5C 189.333,102.167 191.667,98.8333 194,95.5C 195.37,85.2227 195.87,74.8894 195.5,64.5 Z"/></g>
<g><path style="opacity:1" fill="#996e50" d="M 198.5,66.5 C 201.401,75.2361 202.401,84.2361 201.5,93.5C 196.275,104.394 188.275,112.727 177.5,118.5C 176.71,119.609 176.21,120.942 176,122.5C 175.033,119.095 173.2,118.595 170.5,121C 162.988,121.822 155.655,121.655 148.5,120.5C 155.508,120.666 162.508,120.5 169.5,120C 172.274,119.376 174.274,117.876 175.5,115.5C 182.921,112.59 189.088,107.924 194,101.5C 197.923,90.1747 199.423,78.5081 198.5,66.5 Z"/></g>
<g><path style="opacity:1" fill="#debba2" d="M 188.5,77.5 C 189.497,77.4701 190.164,77.9701 190.5,79C 189.993,87.7114 187.659,95.8781 183.5,103.5C 181.807,105.027 179.973,106.36 178,107.5C 176.969,110.539 175.135,113.039 172.5,115C 164.812,116.837 157.146,116.837 149.5,115C 144.422,111.045 139.256,107.211 134,103.5C 130.549,95.9209 129.049,87.9209 129.5,79.5C 132.016,86.7296 134.35,94.063 136.5,101.5C 152.762,116.472 168.262,115.805 183,99.5C 183.611,91.7213 185.445,84.3879 188.5,77.5 Z"/></g>
<g><path style="opacity:1" fill="#cd9f8d" d="M 148.5,102.5 C 154.789,103.372 161.122,103.705 167.5,103.5C 166.878,105.335 165.544,106.502 163.5,107C 159.428,107.658 155.428,107.325 151.5,106C 149.574,105.578 148.574,104.411 148.5,102.5 Z"/></g>
<g><path style="opacity:1" fill="#b37964" d="M 147.5,102.5 C 148.209,101.596 149.209,101.263 150.5,101.5C 157.508,101.334 164.508,101.5 171.5,102C 170.437,103.188 169.103,103.688 167.5,103.5C 161.122,103.705 154.789,103.372 148.5,102.5C 148.167,102.5 147.833,102.5 147.5,102.5 Z"/></g>
<g><path style="opacity:1" fill="#9e765a" d="M 154.5,94.5 C 153.091,92.6951 152.591,90.6951 153,88.5C 156.295,91.9661 160.128,92.4661 164.5,90C 165.126,89.2496 165.626,88.4162 166,87.5C 166.743,89.4406 166.576,91.2739 165.5,93C 161.974,94.3368 158.308,94.8368 154.5,94.5 Z"/></g>
<g><path style="opacity:1" fill="#92643f" d="M 127.5,107.5 C 131.139,107.422 133.806,108.922 135.5,112C 140.124,114.456 144.457,117.289 148.5,120.5C 155.655,121.655 162.988,121.822 170.5,121C 173.2,118.595 175.033,119.095 176,122.5C 176.21,120.942 176.71,119.609 177.5,118.5C 177.5,121.5 177.5,124.5 177.5,127.5C 171.432,128.909 165.265,129.576 159,129.5C 152.351,130.229 146.185,128.895 140.5,125.5C 141.544,123.232 141.711,120.899 141,118.5C 135.787,115.652 131.287,111.985 127.5,107.5 Z"/></g>
<g><path style="opacity:1" fill="#3d352e" d="M 133.5,128.5 C 138.468,129.155 143.135,130.655 147.5,133C 155.167,133.667 162.833,133.667 170.5,133C 174.92,130.75 179.587,129.25 184.5,128.5C 182.137,130.68 179.47,132.347 176.5,133.5C 168.034,135.293 159.367,135.96 150.5,135.5C 145.882,134.41 141.215,133.077 136.5,131.5C 135.694,130.272 134.694,129.272 133.5,128.5 Z"/></g>
<g><path style="opacity:0.998" fill="#c4a47d" d="M 136.5,131.5 C 141.215,133.077 145.882,134.41 150.5,135.5C 147.482,135.665 144.482,135.498 141.5,135C 141,134.5 140.5,134 140,133.5C 139.5,134.667 138.667,135.5 137.5,136C 133.902,136.154 130.569,137.154 127.5,139C 127.918,141.846 127.252,144.68 125.5,147.5C 130.391,151.883 135.725,155.716 141.5,159C 141.167,159.333 140.833,159.667 140.5,160C 144.755,163.266 147.922,167.432 150,172.5C 152.159,173.887 154.493,175.887 157,178.5C 157.333,179.833 157.667,181.167 158,182.5C 158.854,179.338 160.688,178.171 163.5,179C 165.413,177.209 167.08,175.209 168.5,173C 167.346,172.086 167.513,171.253 169,170.5C 169.333,170.833 169.667,171.167 170,171.5C 171.546,167.457 173.713,163.79 176.5,160.5C 181.795,155.521 187.461,151.021 193.5,147C 194.606,145.118 194.606,143.284 193.5,141.5C 189.343,138.301 185.01,135.635 180.5,133.5C 185.207,134.01 189.873,134.843 194.5,136C 201.776,140.22 208.609,145.053 215,150.5C 218.737,160.447 224.07,169.447 231,177.5C 231.36,179.608 232.027,181.608 233,183.5C 235.753,188.59 238.92,193.423 242.5,198C 242.735,206.632 239.568,208.132 233,202.5C 225.623,192.536 219.456,181.869 214.5,170.5C 209.743,167.556 204.743,165.056 199.5,163C 196.036,162.183 192.702,162.517 189.5,164C 185.518,168.126 182.685,172.959 181,178.5C 180.5,205.498 180.333,232.498 180.5,259.5C 166.5,259.5 152.5,259.5 138.5,259.5C 138.667,232.498 138.5,205.498 138,178.5C 135.794,169.628 130.294,164.128 121.5,162C 119.479,161.86 117.645,161.693 116,161.5C 115.024,163.887 113.191,165.054 110.5,165C 108.071,168.618 105.071,169.285 101.5,167C 102.687,163.574 103.687,160.074 104.5,156.5C 104.291,155.914 103.957,155.414 103.5,155C 106.026,151.449 108.192,147.615 110,143.5C 117.617,137.115 126.45,133.115 136.5,131.5 Z"/></g>
<g><path style="opacity:1" fill="#cead86" d="M 150.5,135.5 C 159.367,135.96 168.034,135.293 176.5,133.5C 177.964,134.405 179.298,134.405 180.5,133.5C 185.01,135.635 189.343,138.301 193.5,141.5C 194.606,143.284 194.606,145.118 193.5,147C 187.461,151.021 181.795,155.521 176.5,160.5C 173.713,163.79 171.546,167.457 170,171.5C 169.667,171.167 169.333,170.833 169,170.5C 167.513,171.253 167.346,172.086 168.5,173C 167.08,175.209 165.413,177.209 163.5,179C 160.688,178.171 158.854,179.338 158,182.5C 157.667,181.167 157.333,179.833 157,178.5C 154.493,175.887 152.159,173.887 150,172.5C 147.922,167.432 144.755,163.266 140.5,160C 140.833,159.667 141.167,159.333 141.5,159C 135.725,155.716 130.391,151.883 125.5,147.5C 127.252,144.68 127.918,141.846 127.5,139C 130.569,137.154 133.902,136.154 137.5,136C 138.667,135.5 139.5,134.667 140,133.5C 140.5,134 141,134.5 141.5,135C 144.482,135.498 147.482,135.665 150.5,135.5 Z"/></g>
<g><path style="opacity:0.999" fill="#b79773" d="M 133.5,128.5 C 134.694,129.272 135.694,130.272 136.5,131.5C 126.45,133.115 117.617,137.115 110,143.5C 108.192,147.615 106.026,151.449 103.5,155C 103.957,155.414 104.291,155.914 104.5,156.5C 103.687,160.074 102.687,163.574 101.5,167C 105.071,169.285 108.071,168.618 110.5,165C 113.191,165.054 115.024,163.887 116,161.5C 117.645,161.693 119.479,161.86 121.5,162C 130.294,164.128 135.794,169.628 138,178.5C 138.5,205.498 138.667,232.498 138.5,259.5C 136.5,259.5 134.5,259.5 132.5,259.5C 133.151,251.999 133.818,244.499 134.5,237C 134.167,228.667 133.833,220.333 133.5,212C 134.927,202.257 135.427,192.424 135,182.5C 127.829,162.581 116.829,160.247 102,175.5C 102.204,179.92 101.204,184.253 99,188.5C 96.2455,193.008 93.7455,197.674 91.5,202.5C 90.5617,203.553 89.395,204.22 88,204.5C 85.8448,204.357 83.6781,204.19 81.5,204C 82.6575,200.527 83.8242,197.027 85,193.5C 88.4005,188.423 91.4005,183.089 94,177.5C 96.8662,168.021 100.033,158.688 103.5,149.5C 104.171,148.153 104.171,146.986 103.5,146C 105.706,143.963 107.706,141.797 109.5,139.5C 111.647,137.263 113.98,135.263 116.5,133.5C 121.905,130.966 127.571,129.299 133.5,128.5 Z"/></g>
<g><path style="opacity:0.999" fill="#a28664" d="M 211.5,140.5 C 212.833,141.5 214.167,142.5 215.5,143.5C 218.552,146.576 221.386,149.91 224,153.5C 230.776,164.725 237.276,176.058 243.5,187.5C 241.9,186.748 240.4,185.748 239,184.5C 237.072,181.213 235.072,177.879 233,174.5C 232,174.167 231,173.833 230,173.5C 228.056,169.89 225.723,166.557 223,163.5C 220.672,159.512 219.338,155.179 219,150.5C 217.667,149.833 216.333,149.167 215,148.5C 214.018,145.706 212.851,143.039 211.5,140.5 Z"/></g>
<g><path style="opacity:0.998" fill="#b69772" d="M 184.5,128.5 C 190.082,128.896 195.415,130.229 200.5,132.5C 204.344,134.922 208.01,137.589 211.5,140.5C 212.851,143.039 214.018,145.706 215,148.5C 216.333,149.167 217.667,149.833 219,150.5C 219.338,155.179 220.672,159.512 223,163.5C 225.723,166.557 228.056,169.89 230,173.5C 231,173.833 232,174.167 233,174.5C 235.072,177.879 237.072,181.213 239,184.5C 240.4,185.748 241.9,186.748 243.5,187.5C 247.251,191.995 250.251,196.995 252.5,202.5C 252.586,203.496 252.252,204.329 251.5,205C 249.942,205.21 248.609,205.71 247.5,206.5C 246.5,207.167 245.5,207.833 244.5,208.5C 242.315,207.913 240.648,208.913 239.5,211.5C 237.856,211.286 236.356,211.62 235,212.5C 229.667,205.833 224.333,199.167 219,192.5C 216.27,185.482 213.437,178.482 210.5,171.5C 205.635,166.727 200.301,166.227 194.5,170C 193.378,172.124 191.878,173.957 190,175.5C 188.692,182.441 187.858,189.441 187.5,196.5C 188.599,207.38 189.599,218.213 190.5,229C 190.167,234.667 189.833,240.333 189.5,246C 191.022,250.339 191.689,254.839 191.5,259.5C 187.833,259.5 184.167,259.5 180.5,259.5C 180.333,232.498 180.5,205.498 181,178.5C 182.685,172.959 185.518,168.126 189.5,164C 192.702,162.517 196.036,162.183 199.5,163C 204.743,165.056 209.743,167.556 214.5,170.5C 219.456,181.869 225.623,192.536 233,202.5C 239.568,208.132 242.735,206.632 242.5,198C 238.92,193.423 235.753,188.59 233,183.5C 232.027,181.608 231.36,179.608 231,177.5C 224.07,169.447 218.737,160.447 215,150.5C 208.609,145.053 201.776,140.22 194.5,136C 189.873,134.843 185.207,134.01 180.5,133.5C 179.298,134.405 177.964,134.405 176.5,133.5C 179.47,132.347 182.137,130.68 184.5,128.5 Z"/></g>
<g><path style="opacity:0.998" fill="#a78a65" d="M 127.5,259.5 C 125.5,259.5 123.5,259.5 121.5,259.5C 121.352,235.759 123.019,212.259 126.5,189C 126.809,184.067 125.642,179.567 123,175.5C 119.219,170.799 115.219,170.466 111,174.5C 107.313,179.544 104.98,185.211 104,191.5C 99.8056,197.576 96.8056,204.242 95,211.5C 92.8515,212.977 91.5182,214.977 91,217.5C 90.2917,216.619 89.4584,215.953 88.5,215.5C 87.8333,214.167 87.1667,212.833 86.5,211.5C 89.9966,210.94 92.4966,208.94 94,205.5C 97.3489,198.802 100.682,192.136 104,185.5C 102.927,175.05 107.594,169.383 118,168.5C 120.974,168.75 123.641,169.75 126,171.5C 130.178,178.538 132.011,186.205 131.5,194.5C 131.333,197.5 131.167,200.5 131,203.5C 130.5,204 130,204.5 129.5,205C 129.833,206.667 130.167,208.333 130.5,210C 129.981,226.502 128.981,243.002 127.5,259.5 Z"/></g>
<g><path style="opacity:1" fill="#8f795f" d="M 109.5,139.5 C 107.706,141.797 105.706,143.963 103.5,146C 104.171,146.986 104.171,148.153 103.5,149.5C 101.301,153.967 98.1341,158.301 94,162.5C 93.6667,164.5 93.3333,166.5 93,168.5C 90.4209,174.029 88.0876,179.696 86,185.5C 83.0907,189.449 79.9241,193.115 76.5,196.5C 82.6984,182.432 89.1984,168.432 96,154.5C 99.0299,149.985 102.197,145.651 105.5,141.5C 106.605,140.4 107.938,139.733 109.5,139.5 Z"/></g>
<g><path style="opacity:0.999" fill="#efd1b8" d="M 23.5,185.5 C 26.9728,185.576 30.3061,186.242 33.5,187.5C 33.67,188.822 33.3366,189.989 32.5,191C 30.1902,191.497 27.8568,191.663 25.5,191.5C 24.2702,189.703 23.6036,187.703 23.5,185.5 Z"/></g>
<g><path style="opacity:0.627" fill="#877367" d="M 23.5,185.5 C 24.2739,184.853 25.2739,184.52 26.5,184.5C 31.7101,185.523 36.7101,186.856 41.5,188.5C 38.7938,188.425 36.1272,188.092 33.5,187.5C 30.3061,186.242 26.9728,185.576 23.5,185.5 Z"/></g>
<g><path style="opacity:1" fill="#af916c" d="M 103.5,149.5 C 100.033,158.688 96.8662,168.021 94,177.5C 91.4005,183.089 88.4005,188.423 85,193.5C 83.8242,197.027 82.6575,200.527 81.5,204C 83.6781,204.19 85.8448,204.357 88,204.5C 89.395,204.22 90.5617,203.553 91.5,202.5C 93.7455,197.674 96.2455,193.008 99,188.5C 101.204,184.253 102.204,179.92 102,175.5C 116.829,160.247 127.829,162.581 135,182.5C 135.427,192.424 134.927,202.257 133.5,212C 133.833,220.333 134.167,228.667 134.5,237C 133.818,244.499 133.151,251.999 132.5,259.5C 130.833,259.5 129.167,259.5 127.5,259.5C 128.981,243.002 129.981,226.502 130.5,210C 130.167,208.333 129.833,206.667 129.5,205C 130,204.5 130.5,204 131,203.5C 131.167,200.5 131.333,197.5 131.5,194.5C 132.011,186.205 130.178,178.538 126,171.5C 123.641,169.75 120.974,168.75 118,168.5C 107.594,169.383 102.927,175.05 104,185.5C 100.682,192.136 97.3489,198.802 94,205.5C 92.4966,208.94 89.9966,210.94 86.5,211.5C 83.5571,208.259 80.0571,205.592 76,203.5C 75.51,202.207 75.3433,200.873 75.5,199.5C 75.5569,198.391 75.8902,197.391 76.5,196.5C 79.9241,193.115 83.0907,189.449 86,185.5C 88.0876,179.696 90.4209,174.029 93,168.5C 93.3333,166.5 93.6667,164.5 94,162.5C 98.1341,158.301 101.301,153.967 103.5,149.5 Z"/></g>
<g><path style="opacity:1" fill="#9c775c" d="M 279.5,185.5 C 278.61,187.782 278.444,190.115 279,192.5C 280.635,193.726 282.135,195.059 283.5,196.5C 281.955,197.452 280.288,197.785 278.5,197.5C 276.938,197.267 275.605,196.6 274.5,195.5C 273.791,194.596 272.791,194.263 271.5,194.5C 274.195,191.474 276.862,188.474 279.5,185.5 Z"/></g>
<g><path style="opacity:0.996" fill="#a7836a" d="M 23.5,185.5 C 23.6036,187.703 24.2702,189.703 25.5,191.5C 25.6107,192.117 25.944,192.617 26.5,193C 31.0195,193.175 35.3528,193.675 39.5,194.5C 37.8984,196.074 35.8984,196.741 33.5,196.5C 32.391,196.557 31.391,196.89 30.5,197.5C 24.9132,194.411 22.5798,196.077 23.5,202.5C 18.3371,203.988 17.3371,206.988 20.5,211.5C 20.1667,211.833 19.8333,212.167 19.5,212.5C 18.6751,210.64 17.6751,208.974 16.5,207.5C 18.346,204.465 19.5126,201.132 20,197.5C 23.7578,194.51 24.2578,191.177 21.5,187.5C 21.8333,186.5 22.5,185.833 23.5,185.5 Z"/></g>
<g><path style="opacity:1" fill="#fbdfc6" d="M 33.5,196.5 C 35.8984,196.741 37.8984,196.074 39.5,194.5C 40.1667,194.5 40.8333,194.5 41.5,194.5C 42.4674,193.194 43.8007,192.527 45.5,192.5C 45.5668,194.401 45.2335,196.234 44.5,198C 44.7769,199.892 45.7769,201.225 47.5,202C 47.1667,202.333 46.8333,202.667 46.5,203C 41.9342,204.309 37.2675,204.809 32.5,204.5C 32.2786,201.721 32.612,199.054 33.5,196.5 Z"/></g>
<g><path style="opacity:0.765" fill="#735741" d="M 293.5,202.5 C 293.014,199.173 291.18,196.839 288,195.5C 286.97,195.836 286.47,196.503 286.5,197.5C 285.522,197.189 284.855,196.522 284.5,195.5C 288.009,193.918 291.009,194.584 293.5,197.5C 294.788,199.299 294.788,200.965 293.5,202.5 Z"/></g>
<g><path style="opacity:0.992" fill="#b4947c" d="M 288.5,185.5 C 290.693,186.895 293.026,187.895 295.5,188.5C 293.801,188.34 292.134,188.506 290.5,189C 289.978,189.561 289.645,190.228 289.5,191C 290.744,193.382 292.577,195.215 295,196.5C 295.714,199.606 296.381,202.606 297,205.5C 296.311,204.643 295.478,203.977 294.5,203.5C 292.833,204.5 291.5,205.833 290.5,207.5C 289.313,208.653 288.313,208.653 287.5,207.5C 288.573,205.653 288.573,203.653 287.5,201.5C 288.966,202.347 289.8,203.68 290,205.5C 291.039,204.29 292.206,203.29 293.5,202.5C 294.788,200.965 294.788,199.299 293.5,197.5C 291.009,194.584 288.009,193.918 284.5,195.5C 284.855,196.522 285.522,197.189 286.5,197.5C 286.5,198.167 286.5,198.833 286.5,199.5C 283.72,198.922 281.053,198.255 278.5,197.5C 280.288,197.785 281.955,197.452 283.5,196.5C 282.135,195.059 280.635,193.726 279,192.5C 278.444,190.115 278.61,187.782 279.5,185.5C 282.427,181.776 285.427,181.776 288.5,185.5 Z"/></g>
<g><path style="opacity:1" fill="#eecdb6" d="M 288.5,185.5 C 288.938,191.313 286.438,192.98 281,190.5C 280.257,188.559 280.424,186.726 281.5,185C 283.885,184.444 286.218,184.61 288.5,185.5 Z"/></g>
<g><path style="opacity:0.998" fill="#eeceb5" d="M 274.5,195.5 C 275.605,196.6 276.938,197.267 278.5,197.5C 281.053,198.255 283.72,198.922 286.5,199.5C 287.338,199.842 287.672,200.508 287.5,201.5C 288.573,203.653 288.573,205.653 287.5,207.5C 286.307,207.97 285.64,208.97 285.5,210.5C 285.84,212.512 286.173,214.512 286.5,216.5C 284.208,216.244 282.041,216.577 280,217.5C 279.04,219.98 278.207,222.48 277.5,225C 278.756,225.417 279.423,226.25 279.5,227.5C 278.662,227.842 278.328,228.508 278.5,229.5C 270.121,228.379 262.954,224.379 257,217.5C 256.161,214.86 256.661,212.527 258.5,210.5C 260.277,209.099 261.944,207.599 263.5,206C 263.043,205.586 262.709,205.086 262.5,204.5C 267.233,203.472 270.233,200.639 271.5,196C 272.448,195.517 273.448,195.351 274.5,195.5 Z"/></g>
<g><path style="opacity:1" fill="#ddbfa7" d="M 21.5,187.5 C 24.2578,191.177 23.7578,194.51 20,197.5C 19.5126,201.132 18.346,204.465 16.5,207.5C 15.0821,209.308 13.0821,209.975 10.5,209.5C 11.2607,205.058 11.594,200.725 11.5,196.5C 12.9467,191.386 16.28,188.386 21.5,187.5 Z"/></g>
<g><path style="opacity:1" fill="#ccaa93" d="M 11.5,196.5 C 11.594,200.725 11.2607,205.058 10.5,209.5C 9.84439,210.278 9.01106,210.944 8,211.5C 6.23411,210.767 4.40078,210.433 2.5,210.5C 1.67722,208.013 0.67722,205.679 -0.5,203.5C -0.5,202.167 -0.5,200.833 -0.5,199.5C 3.05977,195.736 6.55977,195.736 10,199.5C 10.2321,198.263 10.7321,197.263 11.5,196.5 Z"/></g>
<g><path style="opacity:1" fill="#ebcdb5" d="M 313.5,202.5 C 314.167,202.833 314.833,203.167 315.5,203.5C 315.5,204.833 315.5,206.167 315.5,207.5C 313.181,208.167 310.847,208.334 308.5,208C 306.845,206.556 306.178,204.722 306.5,202.5C 308.833,202.5 311.167,202.5 313.5,202.5 Z"/></g>
<g><path style="opacity:1" fill="#e5c5aa" d="M 34.5,225.5 C 45.174,225.126 52.5074,220.126 56.5,210.5C 50.5806,208.815 44.9139,209.482 39.5,212.5C 34.2302,211.549 28.8968,211.215 23.5,211.5C 23.9303,210.579 25.2636,210.079 27.5,210C 24.5073,209.573 24.0073,208.406 26,206.5C 26.8928,207.711 27.7261,207.711 28.5,206.5C 27.4647,204.872 27.4647,203.205 28.5,201.5C 28.6596,199.847 29.3263,198.514 30.5,197.5C 31.391,196.89 32.391,196.557 33.5,196.5C 32.612,199.054 32.2786,201.721 32.5,204.5C 37.2675,204.809 41.9342,204.309 46.5,203C 46.8333,202.667 47.1667,202.333 47.5,202C 45.7769,201.225 44.7769,199.892 44.5,198C 45.2335,196.234 45.5668,194.401 45.5,192.5C 43.8007,192.527 42.4674,193.194 41.5,194.5C 41.5198,192.857 40.8532,191.524 39.5,190.5C 41.5497,189.337 43.5497,189.504 45.5,191C 46.0278,194.018 47.0278,196.851 48.5,199.5C 52.3378,200.581 55.8378,202.248 59,204.5C 60.6171,212.763 57.7838,218.93 50.5,223C 45.2824,224.428 40.1157,225.928 35,227.5C 34.5357,226.906 34.369,226.239 34.5,225.5 Z"/></g>
<g><path style="opacity:1" fill="#f0d0b6" d="M 34.5,225.5 C 34.8541,223.459 34.8541,221.626 34.5,220C 32.1902,219.503 29.8568,219.337 27.5,219.5C 28.2436,222.95 26.9103,224.616 23.5,224.5C 22.8333,224.167 22.1667,223.833 21.5,223.5C 22.2737,220.619 23.6071,217.952 25.5,215.5C 25.2483,213.927 24.5817,212.594 23.5,211.5C 28.8968,211.215 34.2302,211.549 39.5,212.5C 44.9139,209.482 50.5806,208.815 56.5,210.5C 52.5074,220.126 45.174,225.126 34.5,225.5 Z"/></g>
<g><path style="opacity:1" fill="#debea3" d="M 295.5,188.5 C 299.413,189.45 302.08,191.783 303.5,195.5C 304.344,199.991 304.01,204.491 302.5,209C 304.452,214.554 302.452,217.054 296.5,216.5C 296.662,214.473 296.495,212.473 296,210.5C 293.495,213.505 290.661,216.172 287.5,218.5C 289.237,222.416 290.571,226.416 291.5,230.5C 286.069,231.906 283.735,229.906 284.5,224.5C 279.913,224.289 279.246,225.789 282.5,229C 280.716,232.124 279.716,231.624 279.5,227.5C 279.423,226.25 278.756,225.417 277.5,225C 278.207,222.48 279.04,219.98 280,217.5C 282.041,216.577 284.208,216.244 286.5,216.5C 286.173,214.512 285.84,212.512 285.5,210.5C 285.64,208.97 286.307,207.97 287.5,207.5C 288.313,208.653 289.313,208.653 290.5,207.5C 291.5,205.833 292.833,204.5 294.5,203.5C 295.478,203.977 296.311,204.643 297,205.5C 296.381,202.606 295.714,199.606 295,196.5C 292.577,195.215 290.744,193.382 289.5,191C 289.645,190.228 289.978,189.561 290.5,189C 292.134,188.506 293.801,188.34 295.5,188.5 Z"/></g>
<g><path style="opacity:1" fill="#a68164" d="M 10.5,209.5 C 12.3938,214.23 15.5604,217.896 20,220.5C 20.4828,221.448 20.6495,222.448 20.5,223.5C 13.4311,220.634 7.4311,216.3 2.5,210.5C 4.40078,210.433 6.23411,210.767 8,211.5C 9.01106,210.944 9.84439,210.278 10.5,209.5 Z"/></g>
<g><path style="opacity:1" fill="#a17858" d="M 63.5,203.5 C 65.0495,204.441 66.7162,205.107 68.5,205.5C 68.5,206.167 68.8333,206.5 69.5,206.5C 71.3044,211.951 70.6377,216.951 67.5,221.5C 65.8997,220.748 64.3997,219.748 63,218.5C 60.6274,220.12 58.1274,221.454 55.5,222.5C 57.8004,220.363 59.9671,218.03 62,215.5C 62.8279,211.534 63.3279,207.534 63.5,203.5 Z"/></g>
<g><path style="opacity:1" fill="#cca88d" d="M 28.5,201.5 C 27.4647,203.205 27.4647,204.872 28.5,206.5C 27.7261,207.711 26.8928,207.711 26,206.5C 24.0073,208.406 24.5073,209.573 27.5,210C 25.2636,210.079 23.9303,210.579 23.5,211.5C 24.5817,212.594 25.2483,213.927 25.5,215.5C 23.6071,217.952 22.2737,220.619 21.5,223.5C 21.1667,223.5 20.8333,223.5 20.5,223.5C 20.6495,222.448 20.4828,221.448 20,220.5C 15.5604,217.896 12.3938,214.23 10.5,209.5C 13.0821,209.975 15.0821,209.308 16.5,207.5C 17.6751,208.974 18.6751,210.64 19.5,212.5C 19.8333,212.167 20.1667,211.833 20.5,211.5C 17.3371,206.988 18.3371,203.988 23.5,202.5C 24.4584,202.953 25.2917,203.619 26,204.5C 26.3768,203.058 27.2101,202.058 28.5,201.5 Z"/></g>
<g><path style="opacity:1" fill="#735e42" d="M 75.5,199.5 C 75.3433,200.873 75.51,202.207 76,203.5C 80.0571,205.592 83.5571,208.259 86.5,211.5C 87.1667,212.833 87.8333,214.167 88.5,215.5C 89.9009,218.704 90.9009,222.037 91.5,225.5C 90.0337,224.653 89.2004,223.32 89,221.5C 88.3333,222.833 87.6667,224.167 87,225.5C 84.9569,219.974 81.7903,218.808 77.5,222C 78.0966,223.628 77.7633,225.295 76.5,227C 71.2573,228.478 65.924,229.312 60.5,229.5C 58.2228,228.551 56.2228,227.218 54.5,225.5C 57.5,225.5 60.5,225.5 63.5,225.5C 62.7375,226.268 61.7375,226.768 60.5,227C 67.4664,228.099 71.9664,225.266 74,218.5C 75.4261,213.243 74.2594,208.743 70.5,205C 69.5632,204.308 68.8966,204.475 68.5,205.5C 66.7162,205.107 65.0495,204.441 63.5,203.5C 60.8478,203.59 58.5145,202.924 56.5,201.5C 62.0934,201.193 67.5934,201.527 73,202.5C 73.8518,201.429 74.6851,200.429 75.5,199.5 Z"/></g>
<g><path style="opacity:1" fill="#584737" d="M 69.5,206.5 C 72.5092,210.764 73.0092,215.431 71,220.5C 69.9609,221.71 68.7942,222.71 67.5,223.5C 67.5,222.833 67.5,222.167 67.5,221.5C 70.6377,216.951 71.3044,211.951 69.5,206.5 Z"/></g>
<g><path style="opacity:0.99" fill="#81694a" d="M 204.5,173.5 C 202.61,173.297 201.11,173.963 200,175.5C 199.333,179.833 199.333,184.167 200,188.5C 200.232,189.737 200.732,190.737 201.5,191.5C 201.5,192.167 201.5,192.833 201.5,193.5C 201.334,202.506 201.5,211.506 202,220.5C 202.198,222.382 202.698,224.048 203.5,225.5C 203.759,236.836 204.093,248.169 204.5,259.5C 204.167,259.5 203.833,259.5 203.5,259.5C 202.242,247.508 200.908,235.508 199.5,223.5C 199.195,215.636 199.528,207.636 200.5,199.5C 198.306,192.067 197.306,183.734 197.5,174.5C 199.436,173.741 201.269,172.741 203,171.5C 204.03,171.836 204.53,172.503 204.5,173.5 Z"/></g>
<g><path style="opacity:1" fill="#b18d72" d="M 303.5,195.5 C 304.482,197.406 305.482,199.406 306.5,201.5C 309.157,200.087 311.49,200.42 313.5,202.5C 311.167,202.5 308.833,202.5 306.5,202.5C 306.178,204.722 306.845,206.556 308.5,208C 310.847,208.334 313.181,208.167 315.5,207.5C 315.5,207.833 315.5,208.167 315.5,208.5C 311.229,216.93 304.562,222.763 295.5,226C 293.714,227.196 292.381,228.696 291.5,230.5C 290.571,226.416 289.237,222.416 287.5,218.5C 290.661,216.172 293.495,213.505 296,210.5C 296.495,212.473 296.662,214.473 296.5,216.5C 302.452,217.054 304.452,214.554 302.5,209C 304.01,204.491 304.344,199.991 303.5,195.5 Z"/></g>
<g><path style="opacity:1" fill="#1f1912" d="M 63.5,225.5 C 65.3797,225.771 66.713,225.104 67.5,223.5C 68.7942,222.71 69.9609,221.71 71,220.5C 73.0092,215.431 72.5092,210.764 69.5,206.5C 68.8333,206.5 68.5,206.167 68.5,205.5C 68.8966,204.475 69.5632,204.308 70.5,205C 74.2594,208.743 75.4261,213.243 74,218.5C 71.9664,225.266 67.4664,228.099 60.5,227C 61.7375,226.768 62.7375,226.268 63.5,225.5 Z"/></g>
<g><path style="opacity:1" fill="#856044" d="M 67.5,221.5 C 67.5,222.167 67.5,222.833 67.5,223.5C 66.713,225.104 65.3797,225.771 63.5,225.5C 60.5,225.5 57.5,225.5 54.5,225.5C 48.8264,228.392 42.8264,230.059 36.5,230.5C 40.4555,229.9 44.1222,228.567 47.5,226.5C 50.1667,225.167 52.8333,223.833 55.5,222.5C 58.1274,221.454 60.6274,220.12 63,218.5C 64.3997,219.748 65.8997,220.748 67.5,221.5 Z"/></g>
<g><path style="opacity:1" fill="#7c614a" d="M 252.5,202.5 C 254.717,203.369 257.05,203.702 259.5,203.5C 257.209,204.765 254.875,206.098 252.5,207.5C 251.094,207.973 250.427,208.973 250.5,210.5C 247.968,210.829 246.968,211.995 247.5,214C 244.645,217.222 244.979,220.056 248.5,222.5C 249.086,222.291 249.586,221.957 250,221.5C 250.919,223.846 252.419,225.846 254.5,227.5C 245.523,225.906 242.356,220.573 245,211.5C 246.36,209.895 247.86,208.395 249.5,207C 248.906,206.536 248.239,206.369 247.5,206.5C 248.609,205.71 249.942,205.21 251.5,205C 252.252,204.329 252.586,203.496 252.5,202.5 Z"/></g>
<g><path style="opacity:1" fill="#d2b197" d="M 271.5,194.5 C 272.791,194.263 273.791,194.596 274.5,195.5C 273.448,195.351 272.448,195.517 271.5,196C 270.233,200.639 267.233,203.472 262.5,204.5C 262.709,205.086 263.043,205.586 263.5,206C 261.944,207.599 260.277,209.099 258.5,210.5C 256.661,212.527 256.161,214.86 257,217.5C 262.954,224.379 270.121,228.379 278.5,229.5C 278.719,230.675 278.386,231.675 277.5,232.5C 270.724,229.946 264.391,226.613 258.5,222.5C 254.601,218.333 252.601,213.333 252.5,207.5C 254.875,206.098 257.209,204.765 259.5,203.5C 263.495,200.507 267.495,197.507 271.5,194.5 Z"/></g>
<g><path style="opacity:1" fill="#2d2115" d="M 247.5,206.5 C 248.239,206.369 248.906,206.536 249.5,207C 247.86,208.395 246.36,209.895 245,211.5C 242.356,220.573 245.523,225.906 254.5,227.5C 255.167,227.5 255.833,227.5 256.5,227.5C 256.918,228.222 257.584,228.722 258.5,229C 248.93,230.264 243.597,226.098 242.5,216.5C 242.59,213.664 243.257,210.997 244.5,208.5C 245.5,207.833 246.5,207.167 247.5,206.5 Z"/></g>
<g><path style="opacity:1" fill="#c7a387" d="M 33.5,187.5 C 36.1272,188.092 38.7938,188.425 41.5,188.5C 43.3084,188.491 44.9751,188.991 46.5,190C 49.0402,194.695 52.3735,198.528 56.5,201.5C 58.5145,202.924 60.8478,203.59 63.5,203.5C 63.3279,207.534 62.8279,211.534 62,215.5C 59.9671,218.03 57.8004,220.363 55.5,222.5C 52.8333,223.833 50.1667,225.167 47.5,226.5C 40.554,227.881 33.554,228.381 26.5,228C 24.5743,227.578 23.5743,226.411 23.5,224.5C 26.9103,224.616 28.2436,222.95 27.5,219.5C 29.8568,219.337 32.1902,219.503 34.5,220C 34.8541,221.626 34.8541,223.459 34.5,225.5C 34.369,226.239 34.5357,226.906 35,227.5C 40.1157,225.928 45.2824,224.428 50.5,223C 57.7838,218.93 60.6171,212.763 59,204.5C 55.8378,202.248 52.3378,200.581 48.5,199.5C 47.0278,196.851 46.0278,194.018 45.5,191C 43.5497,189.504 41.5497,189.337 39.5,190.5C 40.8532,191.524 41.5198,192.857 41.5,194.5C 40.8333,194.5 40.1667,194.5 39.5,194.5C 35.3528,193.675 31.0195,193.175 26.5,193C 25.944,192.617 25.6107,192.117 25.5,191.5C 27.8568,191.663 30.1902,191.497 32.5,191C 33.3366,189.989 33.67,188.822 33.5,187.5 Z"/></g>
<g><path style="opacity:1" fill="#986c4a" d="M 250.5,210.5 C 251.084,213.003 251.751,215.503 252.5,218C 254.459,219.3 255.626,221.133 256,223.5C 258.688,225.364 261.188,227.364 263.5,229.5C 261.071,229.116 258.737,228.449 256.5,227.5C 255.833,227.5 255.167,227.5 254.5,227.5C 252.419,225.846 250.919,223.846 250,221.5C 249.586,221.957 249.086,222.291 248.5,222.5C 244.979,220.056 244.645,217.222 247.5,214C 246.968,211.995 247.968,210.829 250.5,210.5 Z"/></g>
<g><path style="opacity:0.988" fill="#66533b" d="M 244.5,208.5 C 243.257,210.997 242.59,213.664 242.5,216.5C 243.597,226.098 248.93,230.264 258.5,229C 257.584,228.722 256.918,228.222 256.5,227.5C 258.737,228.449 261.071,229.116 263.5,229.5C 263.5,229.833 263.5,230.167 263.5,230.5C 262.833,230.5 262.167,230.5 261.5,230.5C 257.837,231.112 254.17,231.279 250.5,231C 246.31,227.149 241.81,223.649 237,220.5C 236.667,223.167 236.333,225.833 236,228.5C 235.329,227.748 234.496,227.414 233.5,227.5C 229.479,222.804 225.812,217.804 222.5,212.5C 224.969,213.569 227.302,214.902 229.5,216.5C 231.311,219.444 233.144,222.444 235,225.5C 235.65,220.54 237.15,215.873 239.5,211.5C 240.648,208.913 242.315,207.913 244.5,208.5 Z"/></g>
<g><path style="opacity:0.999" fill="#594731" d="M 91.5,225.5 C 92.3382,225.158 92.6716,224.492 92.5,223.5C 93.5,223.5 94.5,223.5 95.5,223.5C 91.4801,232.671 84.4801,236.505 74.5,235C 69.8742,232.854 65.2075,231.02 60.5,229.5C 65.924,229.312 71.2573,228.478 76.5,227C 77.7633,225.295 78.0966,223.628 77.5,222C 81.7903,218.808 84.9569,219.974 87,225.5C 87.6667,224.167 88.3333,222.833 89,221.5C 89.2004,223.32 90.0337,224.653 91.5,225.5 Z"/></g>
<g><path style="opacity:0.992" fill="#9c7a5f" d="M 20.5,223.5 C 20.8333,223.5 21.1667,223.5 21.5,223.5C 22.1667,223.833 22.8333,224.167 23.5,224.5C 23.5743,226.411 24.5743,227.578 26.5,228C 33.554,228.381 40.554,227.881 47.5,226.5C 44.1222,228.567 40.4555,229.9 36.5,230.5C 29.5833,232.047 24.25,229.713 20.5,223.5 Z"/></g>
<g><path style="opacity:1" fill="#55442d" d="M 261.5,230.5 C 251.241,240.289 241.907,239.289 233.5,227.5C 234.496,227.414 235.329,227.748 236,228.5C 236.333,225.833 236.667,223.167 237,220.5C 241.81,223.649 246.31,227.149 250.5,231C 254.17,231.279 257.837,231.112 261.5,230.5 Z"/></g>
<g><path style="opacity:0.992" fill="#b18b6d" d="M 252.5,207.5 C 252.601,213.333 254.601,218.333 258.5,222.5C 264.391,226.613 270.724,229.946 277.5,232.5C 278.386,231.675 278.719,230.675 278.5,229.5C 278.328,228.508 278.662,227.842 279.5,227.5C 279.716,231.624 280.716,232.124 282.5,229C 279.246,225.789 279.913,224.289 284.5,224.5C 283.735,229.906 286.069,231.906 291.5,230.5C 291.5,231.167 291.167,231.5 290.5,231.5C 286.757,231.529 283.423,232.529 280.5,234.5C 275.62,232.964 270.62,231.964 265.5,231.5C 264.508,231.672 263.842,231.338 263.5,230.5C 263.5,230.167 263.5,229.833 263.5,229.5C 261.188,227.364 258.688,225.364 256,223.5C 255.626,221.133 254.459,219.3 252.5,218C 251.751,215.503 251.084,213.003 250.5,210.5C 250.427,208.973 251.094,207.973 252.5,207.5 Z"/></g>
<g><path style="opacity:0.875" fill="#625544" d="M 117.5,197.5 C 117.667,210.171 117.5,222.838 117,235.5C 116.722,236.416 116.222,237.082 115.5,237.5C 115.387,223.974 116.054,210.64 117.5,197.5 Z"/></g>
<g><path style="opacity:0.659" fill="#7b5842" d="M 265.5,231.5 C 270.62,231.964 275.62,232.964 280.5,234.5C 283.423,232.529 286.757,231.529 290.5,231.5C 287.875,234.064 284.709,235.73 281,236.5C 275.582,235.359 270.415,233.692 265.5,231.5 Z"/></g>
<g><path style="opacity:0.998" fill="#907655" d="M 121.5,259.5 C 120.167,259.5 118.833,259.5 117.5,259.5C 117.65,252.279 116.983,245.279 115.5,238.5C 115.5,238.167 115.5,237.833 115.5,237.5C 116.222,237.082 116.722,236.416 117,235.5C 117.5,222.838 117.667,210.171 117.5,197.5C 117.5,193.5 117.5,189.5 117.5,185.5C 119.463,182.482 119.963,179.149 119,175.5C 116.283,172.679 113.95,173.013 112,176.5C 109.572,191.34 103.905,204.673 95,216.5C 93.8822,218.765 93.0488,221.099 92.5,223.5C 92.6716,224.492 92.3382,225.158 91.5,225.5C 90.9009,222.037 89.9009,218.704 88.5,215.5C 89.4584,215.953 90.2917,216.619 91,217.5C 91.5182,214.977 92.8515,212.977 95,211.5C 96.8056,204.242 99.8056,197.576 104,191.5C 104.98,185.211 107.313,179.544 111,174.5C 115.219,170.466 119.219,170.799 123,175.5C 125.642,179.567 126.809,184.067 126.5,189C 123.019,212.259 121.352,235.759 121.5,259.5 Z"/></g>
<g><path style="opacity:1" fill="#705a3d" d="M 117.5,185.5 C 110.672,198.494 103.338,211.161 95.5,223.5C 94.5,223.5 93.5,223.5 92.5,223.5C 93.0488,221.099 93.8822,218.765 95,216.5C 103.905,204.673 109.572,191.34 112,176.5C 113.95,173.013 116.283,172.679 119,175.5C 119.963,179.149 119.463,182.482 117.5,185.5 Z"/></g>
<g><path style="opacity:1" fill="#957856" d="M 197.5,174.5 C 197.306,183.734 198.306,192.067 200.5,199.5C 199.528,207.636 199.195,215.636 199.5,223.5C 200.908,235.508 202.242,247.508 203.5,259.5C 201.833,259.5 200.167,259.5 198.5,259.5C 196.701,231.528 195.867,203.528 196,175.5C 196.383,174.944 196.883,174.611 197.5,174.5 Z"/></g>
<g><path style="opacity:1" fill="#a58864" d="M 239.5,211.5 C 237.15,215.873 235.65,220.54 235,225.5C 233.144,222.444 231.311,219.444 229.5,216.5C 228,210.503 225.167,205.169 221,200.5C 219.588,196.679 217.921,193.012 216,189.5C 212.662,183.685 208.829,178.352 204.5,173.5C 204.53,172.503 204.03,171.836 203,171.5C 201.269,172.741 199.436,173.741 197.5,174.5C 196.883,174.611 196.383,174.944 196,175.5C 195.867,203.528 196.701,231.528 198.5,259.5C 196.167,259.5 193.833,259.5 191.5,259.5C 191.689,254.839 191.022,250.339 189.5,246C 189.833,240.333 190.167,234.667 190.5,229C 189.599,218.213 188.599,207.38 187.5,196.5C 187.858,189.441 188.692,182.441 190,175.5C 191.878,173.957 193.378,172.124 194.5,170C 200.301,166.227 205.635,166.727 210.5,171.5C 213.437,178.482 216.27,185.482 219,192.5C 224.333,199.167 229.667,205.833 235,212.5C 236.356,211.62 237.856,211.286 239.5,211.5 Z"/></g>
<g><path style="opacity:0.333" fill="#544538" d="M 201.5,193.5 C 202.35,204.004 203.017,214.671 203.5,225.5C 202.698,224.048 202.198,222.382 202,220.5C 201.5,211.506 201.334,202.506 201.5,193.5 Z"/></g>
<g><path style="opacity:1" fill="#856b4d" d="M 204.5,173.5 C 208.829,178.352 212.662,183.685 216,189.5C 217.921,193.012 219.588,196.679 221,200.5C 225.167,205.169 228,210.503 229.5,216.5C 227.302,214.902 224.969,213.569 222.5,212.5C 222.167,211.833 221.833,211.167 221.5,210.5C 221.66,208.801 221.494,207.134 221,205.5C 218.513,203.191 216.513,200.524 215,197.5C 211.207,189.585 207.707,181.585 204.5,173.5 Z"/></g>
<g><path style="opacity:0.995" fill="#665238" d="M 204.5,173.5 C 207.707,181.585 211.207,189.585 215,197.5C 216.513,200.524 218.513,203.191 221,205.5C 221.494,207.134 221.66,208.801 221.5,210.5C 214.528,201.244 208.028,191.577 202,181.5C 201.502,184.817 201.335,188.15 201.5,191.5C 200.732,190.737 200.232,189.737 200,188.5C 199.333,184.167 199.333,179.833 200,175.5C 201.11,173.963 202.61,173.297 204.5,173.5 Z"/></g>
<g><path style="opacity:0.984" fill="#6d5e48" d="M 115.5,238.5 C 116.983,245.279 117.65,252.279 117.5,259.5C 116.5,259.5 115.5,259.5 114.5,259.5C 114.435,252.476 114.768,245.476 115.5,238.5 Z"/></g>
</svg>
